<svg width="14" height="16" viewBox="0 0 14 16" fill="none" xmlns="http://www.w3.org/2000/svg">
<path d="M8.47003 3.53001C8.61066 3.67046 8.80128 3.74935 9.00003 3.74935C9.19878 3.74935 9.38941 3.67046 9.53003 3.53001L10.25 2.81001V13C10.25 13.1989 10.329 13.3897 10.4697 13.5303C10.6104 13.671 10.8011 13.75 11 13.75C11.1989 13.75 11.3897 13.671 11.5304 13.5303C11.671 13.3897 11.75 13.1989 11.75 13V2.81001L12.47 3.53001C12.5387 3.6037 12.6215 3.6628 12.7135 3.70379C12.8055 3.74478 12.9048 3.76683 13.0055 3.7686C13.1062 3.77038 13.2062 3.75186 13.2996 3.71413C13.393 3.67641 13.4779 3.62027 13.5491 3.54905C13.6203 3.47783 13.6764 3.393 13.7142 3.29961C13.7519 3.20622 13.7704 3.10619 13.7686 3.00549C13.7668 2.90479 13.7448 2.80547 13.7038 2.71347C13.6628 2.62147 13.6037 2.53867 13.53 2.47001L11.53 0.470011C11.3894 0.329561 11.1988 0.250671 11 0.250671C10.8013 0.250671 10.6107 0.329561 10.47 0.470011L8.47003 2.47001C8.32958 2.61064 8.25069 2.80126 8.25069 3.00001C8.25069 3.19876 8.32958 3.38939 8.47003 3.53001ZM3.75003 13.19L4.47003 12.47C4.53869 12.3963 4.62149 12.3372 4.71349 12.2962C4.80549 12.2552 4.90481 12.2332 5.00551 12.2314C5.10621 12.2296 5.20624 12.2482 5.29963 12.2859C5.39302 12.3236 5.47785 12.3798 5.54907 12.451C5.62029 12.5222 5.67643 12.607 5.71415 12.7004C5.75188 12.7938 5.7704 12.8938 5.76862 12.9945C5.76685 13.0952 5.7448 13.1946 5.70381 13.2866C5.66282 13.3785 5.60372 13.4614 5.53003 13.53L3.53003 15.53C3.38941 15.6705 3.19878 15.7494 3.00003 15.7494C2.80128 15.7494 2.61066 15.6705 2.47003 15.53L0.470031 13.53C0.396344 13.4614 0.337242 13.3785 0.29625 13.2866C0.255258 13.1946 0.233217 13.0952 0.23144 12.9945C0.229663 12.8938 0.248188 12.7938 0.285909 12.7004C0.32363 12.607 0.379774 12.5222 0.450993 12.451C0.522212 12.3798 0.607045 12.3236 0.700434 12.2859C0.793822 12.2482 0.893851 12.2296 0.994554 12.2314C1.09526 12.2332 1.19457 12.2552 1.28657 12.2962C1.37857 12.3372 1.46137 12.3963 1.53003 12.47L2.25003 13.19V3.00001C2.25003 2.8011 2.32905 2.61033 2.4697 2.46968C2.61035 2.32903 2.80112 2.25001 3.00003 2.25001C3.19894 2.25001 3.38971 2.32903 3.53036 2.46968C3.67101 2.61033 3.75003 2.8011 3.75003 3.00001V13.19Z" fill="black"/>
</svg>
